<svg width="431" height="300" viewBox="0 0 431 300" fill="none" xmlns="http://www.w3.org/2000/svg">
<g clip-path="url(#clip0_2806_2821)">
<path d="M85.8739 300C133.301 300 171.748 297.079 171.748 293.475C171.748 289.871 133.301 286.95 85.8739 286.95C38.4471 286.95 0 289.871 0 293.475C0 297.079 38.4471 300 85.8739 300Z" fill="#3E4F64"/>
<path d="M65.6404 66.5647C80.5851 60.2055 99.1989 64.2346 117.377 67.031C117.546 63.6446 119.597 59.5231 117.449 57.1605C114.84 54.2902 115.08 51.2744 116.65 48.2411C120.665 40.4846 114.912 32.2313 109.104 25.3687C107.795 23.8254 106.14 22.6129 104.274 21.8295C102.409 21.0461 100.385 20.714 98.3666 20.8601L87.6066 21.629C84.9882 21.8162 82.4894 22.7988 80.4446 24.4455C78.3997 26.0922 76.9063 28.3244 76.1642 30.8434C73.5949 34.3392 72.2197 37.8253 73.0855 41.2933C69.2372 43.9244 68.5906 47.1004 70.3199 50.6807C71.7863 52.935 71.7707 55.1294 70.2532 57.2631C68.2603 59.9833 66.7339 63.0164 65.7366 66.2381L65.6404 66.5647Z" fill="#1E2532"/>
<path d="M420.787 259.345H116.197C113.488 259.345 110.89 258.269 108.975 256.353C107.06 254.436 105.984 251.837 105.984 249.128C216.398 236.29 324.736 236.29 431 249.128C431 251.837 429.924 254.436 428.009 256.353C426.093 258.269 423.496 259.345 420.787 259.345Z" fill="#1E2532"/>
<path d="M431 249.729L105.984 249.128L143.652 185.719L143.832 185.418V45.6724C143.832 43.9762 144.166 42.2965 144.815 40.7294C145.463 39.1623 146.414 37.7384 147.613 36.539C148.812 35.3396 150.235 34.3882 151.802 33.7391C153.368 33.0901 155.047 32.7561 156.743 32.7562H378.439C380.134 32.7561 381.813 33.0901 383.379 33.7391C384.946 34.3882 386.369 35.3396 387.568 36.539C388.767 37.7384 389.718 39.1623 390.367 40.7294C391.015 42.2965 391.349 43.9762 391.349 45.6724V186.38L431 249.729Z" fill="#B5B6B6"/>
<path d="M156.448 41.7717C155.333 41.773 154.264 42.2166 153.476 43.0054C152.688 43.7941 152.244 44.8635 152.243 45.9789V173.398C152.244 174.513 152.688 175.582 153.476 176.371C154.264 177.16 155.333 177.604 156.448 177.605H380.535C381.65 177.604 382.719 177.16 383.507 176.371C384.296 175.582 384.739 174.513 384.741 173.398V45.9789C384.739 44.8635 384.296 43.7942 383.508 43.0054C382.719 42.2167 381.65 41.773 380.535 41.7717H156.448Z" fill="#EEEEEE"/>
<path d="M157.387 194.434C157.043 194.434 156.706 194.533 156.415 194.719C156.125 194.905 155.894 195.17 155.75 195.483L144.143 220.727C144.017 221.001 143.961 221.303 143.982 221.605C144.003 221.907 144.1 222.198 144.263 222.453C144.426 222.707 144.65 222.917 144.915 223.062C145.181 223.207 145.478 223.283 145.78 223.283H389.864C390.171 223.283 390.474 223.205 390.742 223.055C391.01 222.905 391.236 222.689 391.397 222.428C391.559 222.167 391.651 221.868 391.665 221.561C391.678 221.254 391.613 220.949 391.476 220.674L378.86 195.43C378.711 195.13 378.481 194.878 378.196 194.702C377.911 194.526 377.583 194.433 377.248 194.434H157.387Z" fill="#1E2532"/>
<path d="M267.591 39.6681C269.084 39.6681 270.294 38.4572 270.294 36.9634C270.294 35.4697 269.084 34.2588 267.591 34.2588C266.098 34.2588 264.887 35.4697 264.887 36.9634C264.887 38.4572 266.098 39.6681 267.591 39.6681Z" fill="#EEEEEE"/>
<path d="M243.599 228.092C243.203 228.092 242.818 228.223 242.504 228.464C242.189 228.705 241.963 229.043 241.859 229.426L238.948 240.244C238.876 240.511 238.866 240.792 238.92 241.063C238.973 241.335 239.089 241.59 239.257 241.81C239.425 242.03 239.642 242.208 239.89 242.33C240.138 242.453 240.411 242.516 240.688 242.516H296.057C296.344 242.516 296.627 242.448 296.883 242.316C297.138 242.184 297.358 241.993 297.525 241.759C297.691 241.525 297.8 241.254 297.841 240.97C297.881 240.685 297.854 240.395 297.759 240.123L294.016 229.305C293.894 228.951 293.664 228.643 293.358 228.426C293.053 228.209 292.688 228.092 292.313 228.092H243.599Z" fill="#1E2532"/>
<path d="M391.349 183.315V185.719H143.652L143.838 185.418V183.315H391.349Z" fill="#1E2532"/>
<path d="M384.44 84.1444C407.666 84.1444 426.494 65.3081 426.494 42.0722C426.494 18.8364 407.666 0 384.44 0C361.215 0 342.386 18.8364 342.386 42.0722C342.386 65.3081 361.215 84.1444 384.44 84.1444Z" fill="white"/>
<path d="M401.863 60.4037H367.018C366.381 60.4031 365.77 60.1496 365.319 59.6988C364.869 59.2481 364.616 58.637 364.615 57.9996V36.9634C364.616 36.326 364.869 35.7149 365.32 35.2642C365.77 34.8135 366.381 34.56 367.018 34.5593H401.863C402.5 34.56 403.111 34.8135 403.561 35.2642C404.012 35.7149 404.265 36.326 404.266 36.9634V57.9996C404.265 58.637 404.012 59.2481 403.561 59.6988C403.111 60.1496 402.5 60.4031 401.863 60.4037ZM367.018 36.9635V57.9996H401.864L401.863 36.9634L367.018 36.9635Z" fill="#3E4F64"/>
<path d="M395.254 36.9634H373.626V27.3469C373.626 20.3817 378.174 15.3263 384.44 15.3263C390.706 15.3263 395.254 20.3817 395.254 27.3469L395.254 36.9634ZM376.03 34.5593H392.851V27.3469C392.851 21.6849 389.393 17.7304 384.44 17.7304C379.488 17.7304 376.03 21.685 376.03 27.3469L376.03 34.5593Z" fill="#3E4F64"/>
<path d="M384.44 49.2846C385.768 49.2846 386.843 48.2082 386.843 46.8804C386.843 45.5527 385.768 44.4763 384.44 44.4763C383.113 44.4763 382.037 45.5527 382.037 46.8804C382.037 48.2082 383.113 49.2846 384.44 49.2846Z" fill="#3E4F64"/>
<path d="M355.083 134.386H181.901C181.05 134.385 180.235 134.046 179.634 133.445C179.033 132.843 178.694 132.028 178.693 131.177V88.1993C178.694 87.3487 179.033 86.5332 179.634 85.9317C180.235 85.3302 181.05 84.9918 181.901 84.9908H355.083C355.933 84.9918 356.749 85.3302 357.35 85.9317C357.951 86.5332 358.289 87.3487 358.29 88.1993V131.177C358.289 132.028 357.951 132.843 357.35 133.445C356.749 134.046 355.933 134.385 355.083 134.386ZM181.901 86.2743C181.39 86.2748 180.901 86.4778 180.54 86.8387C180.18 87.1996 179.977 87.6889 179.976 88.1993V131.177C179.977 131.688 180.18 132.177 180.54 132.538C180.901 132.899 181.39 133.102 181.901 133.102H355.083C355.593 133.102 356.082 132.899 356.443 132.538C356.804 132.177 357.007 131.688 357.007 131.177V88.1993C357.007 87.6889 356.804 87.1996 356.443 86.8387C356.082 86.4778 355.593 86.2748 355.083 86.2742L181.901 86.2743Z" fill="#3E4F64"/>
<path d="M208.81 121.109C216.025 121.109 221.874 115.257 221.874 108.039C221.874 100.821 216.025 94.9695 208.81 94.9695C201.595 94.9695 195.746 100.821 195.746 108.039C195.746 115.257 201.595 121.109 208.81 121.109Z" fill="#3E4F64"/>
<path d="M238.981 99.3261C238.695 99.3257 238.411 99.3817 238.147 99.4909C237.882 99.6002 237.642 99.7606 237.439 99.9629C237.237 100.165 237.076 100.406 236.966 100.67C236.857 100.935 236.8 101.218 236.8 101.504C236.8 101.791 236.857 102.074 236.966 102.339C237.076 102.603 237.237 102.844 237.439 103.046C237.642 103.248 237.882 103.409 238.147 103.518C238.411 103.627 238.695 103.683 238.981 103.683H341.626C342.204 103.683 342.758 103.453 343.166 103.045C343.574 102.636 343.804 102.082 343.804 101.504C343.804 100.927 343.574 100.373 343.166 99.9641C342.758 99.5556 342.204 99.3261 341.626 99.3261H238.981Z" fill="#3E4F64"/>
<path d="M238.981 112.396C238.404 112.396 237.85 112.625 237.441 113.034C237.033 113.442 236.804 113.996 236.804 114.574C236.804 115.152 237.033 115.706 237.441 116.114C237.85 116.523 238.404 116.752 238.981 116.752H283.15C283.727 116.752 284.281 116.523 284.689 116.114C285.098 115.706 285.327 115.152 285.327 114.574C285.327 113.996 285.098 113.442 284.689 113.034C284.281 112.625 283.727 112.396 283.15 112.396H238.981Z" fill="#3E4F64"/>
<path d="M143.226 113.277L111.212 130.305L110.806 116.115C121.255 114.37 131.197 111.331 140.389 106.385L143.737 98.109C144.102 97.2073 144.695 96.4159 145.458 95.8126C146.221 95.2094 147.127 94.815 148.089 94.6681C149.05 94.5213 150.033 94.627 150.941 94.975C151.849 95.323 152.651 95.9012 153.268 96.653C154.171 97.7528 154.623 99.155 154.531 100.575C154.44 101.996 153.812 103.328 152.775 104.303L143.226 113.277Z" fill="#A0616A"/>
<path d="M65.0023 211.588C64.7687 210.731 64.7191 209.835 64.8568 208.957C64.9944 208.08 65.3162 207.241 65.8009 206.497L72.8334 195.7C74.4968 193.146 77.0491 191.301 79.9952 190.523C82.9412 189.746 86.071 190.091 88.7772 191.491C85.8216 196.524 86.2336 200.94 89.7979 204.777C84.2647 207.479 79.1508 210.967 74.6145 215.132C73.7864 215.697 72.8353 216.056 71.8406 216.179C70.8458 216.301 69.8362 216.184 68.8958 215.838C67.9553 215.491 67.1113 214.924 66.4341 214.185C65.7568 213.446 65.2659 212.556 65.0023 211.588Z" fill="#1E2532"/>
<path d="M144.684 197.47C143.62 199.245 142.117 200.716 140.321 201.742C138.525 202.768 136.496 203.316 134.427 203.331L87.7075 203.685L85.6813 191.928L106.349 185.847L88.9232 172.468L107.97 150.17L142.564 182.427C144.586 184.313 145.899 186.835 146.285 189.573C146.671 192.311 146.106 195.099 144.684 197.47Z" fill="#1E2532"/>
<path d="M80.4131 277.877H69.4716C59.6476 210.509 49.6478 142.952 79.1974 117.737L114.048 123.412L109.591 153.008L90.1389 175.306L80.4131 277.877Z" fill="#1E2532"/>
<path d="M90.0313 293.138C89.1747 293.372 88.2784 293.421 87.4013 293.284C86.5242 293.146 85.6862 292.824 84.9423 292.34L73.0621 290.742C70.5092 289.078 68.6652 286.525 67.8878 283.577C67.1104 280.63 67.455 277.499 68.8548 274.792C73.8859 277.748 78.2993 277.336 82.1346 273.77C84.8444 279.244 89.3093 278.91 93.5735 283.522C94.1381 284.35 94.4967 285.301 94.6193 286.297C94.7419 287.292 94.6251 288.302 94.2786 289.243C93.932 290.184 93.3657 291.028 92.627 291.706C91.8882 292.383 90.9982 292.874 90.0313 293.138Z" fill="#1E2532"/>
<path d="M106.349 72.735L86.0865 67.87C89.4517 60.9787 89.7288 53.3106 88.1127 45.1665L101.891 44.7611C102.323 54.8885 103.629 64.3501 106.349 72.735Z" fill="#A0616A"/>
<path d="M111.917 135.619C97.1673 145.675 86.7453 135.963 78.7921 120.98C79.8973 111.811 78.1079 100.839 74.7937 88.9174C73.3198 83.6589 73.8701 78.0388 76.3359 73.1664C78.8017 68.2941 83.0038 64.5237 88.1127 62.5995L105.538 69.8971C120.334 81.963 123.247 95.0327 117.695 108.817L111.917 135.619Z" fill="#3E4F64"/>
<path d="M69.4716 82.8705L53.2619 91.3843L82.0341 108.412L86.0375 118.291C86.3047 118.951 86.4349 119.658 86.4201 120.369C86.4053 121.081 86.2458 121.781 85.9514 122.429C85.657 123.077 85.2338 123.658 84.7077 124.137C84.1815 124.615 83.5634 124.982 82.891 125.214C82.1267 125.477 81.3118 125.56 80.51 125.456C79.7083 125.352 78.9415 125.064 78.2697 124.614C77.5979 124.164 77.0393 123.565 76.6378 122.863C76.2362 122.161 76.0025 121.375 75.9551 120.568L75.5502 113.682L38.9811 101.609C37.749 101.202 36.6255 100.521 35.6959 99.6151C34.7662 98.7096 34.0547 97.6044 33.6152 96.3831C32.9746 94.6029 32.942 92.6604 33.5225 90.8597C34.103 89.0589 35.2638 87.5015 36.8233 86.4312L66.2296 66.2483L69.4716 82.8705Z" fill="#A0616A"/>
<path d="M85.6813 84.4922C78.9208 81.5282 72.7734 84.748 65.0139 87.3301L63.7982 65.8429C71.503 61.7346 78.849 60.6269 85.6813 63.8158L85.6813 84.4922Z" fill="#3E4F64"/>
<path d="M93.7683 55.4045C100.913 55.4045 106.705 49.61 106.705 42.4622C106.705 35.3144 100.913 29.52 93.7683 29.52C86.6236 29.52 80.8317 35.3144 80.8317 42.4622C80.8317 49.61 86.6236 55.4045 93.7683 55.4045Z" fill="#A0616A"/>
<path d="M109.245 40.8293C96.4363 42.0843 86.6765 39.9886 80.4388 34.0216V29.2161H108.158L109.245 40.8293Z" fill="#1E2532"/>
</g>
<defs>
<clipPath id="clip0_2806_2821">
<rect width="431" height="300" fill="white"/>
</clipPath>
</defs>
</svg>
