<svg width="388" height="300" viewBox="0 0 388 300" fill="none" xmlns="http://www.w3.org/2000/svg">
<path d="M63.0737 299.236C63.0737 299.659 63.3058 300 63.5948 300H323.433C323.724 300 323.954 299.66 323.954 299.236C323.954 298.812 323.722 298.473 323.433 298.473H63.5948C63.3058 298.473 63.0737 298.813 63.0737 299.236Z" fill="#3E4F64"/>
<path d="M157.46 296.719H148.183V298.356H157.46V296.719Z" fill="#3E4F64"/>
<path d="M239.589 296.993H230.312V298.629H239.589V296.993Z" fill="#3E4F64"/>
<path d="M207.189 223.902C206.673 227.026 205.063 229.864 202.648 231.912C200.232 233.96 197.168 235.084 194 235.084C190.833 235.084 187.768 233.96 185.353 231.912C182.937 229.864 181.328 227.026 180.811 223.902H147.069V296.991H240.933V223.902H207.189Z" fill="#3E4F64"/>
<path d="M241.204 291.201H147.342V293.745H241.204V291.201Z" fill="#1E2532"/>
<path d="M382.767 225.813H5.2327C3.84537 225.811 2.51531 225.26 1.53433 224.279C0.553338 223.299 0.00154233 221.969 0 220.583L0 5.23061C0.00141382 3.84388 0.553153 2.51435 1.53415 1.53374C2.51515 0.553133 3.84529 0.0015418 5.2327 0H382.767C384.155 0.00166975 385.485 0.553235 386.466 1.53371C387.446 2.51419 387.998 3.84352 388 5.23012V220.583C387.998 221.969 387.446 223.299 386.466 224.279C385.485 225.26 384.155 225.811 382.767 225.813Z" fill="#3E4F64"/>
<path d="M377.752 7.30743H8.30566V215.666H377.752V7.30743Z" fill="#1E2532"/>
<path d="M249.107 123.764H139.849C135.559 123.764 132.08 127.24 132.08 131.529C132.08 135.818 135.559 139.295 139.849 139.295H249.107C253.398 139.295 256.876 135.818 256.876 131.529C256.876 127.24 253.398 123.764 249.107 123.764Z" fill="white"/>
<path d="M254.904 99.9999H229.788C228.802 99.9999 228.002 103.582 228.002 108C228.002 112.418 228.802 116 229.788 116H254.904C255.891 116 256.69 112.418 256.69 108C256.69 103.582 255.891 99.9999 254.904 99.9999Z" fill="#3E4F64"/>
<path d="M242.987 110.824C244.635 110.824 245.972 109.52 245.972 107.912C245.972 106.304 244.635 105 242.987 105C241.338 105 240.001 106.304 240.001 107.912C240.001 109.52 241.338 110.824 242.987 110.824Z" fill="#1E2532"/>
<path d="M222.903 99.9999H197.787C196.801 99.9999 196.001 103.582 196.001 108C196.001 112.418 196.801 116 197.787 116H222.903C223.89 116 224.69 112.418 224.69 108C224.69 103.582 223.89 99.9999 222.903 99.9999Z" fill="#3E4F64"/>
<path d="M210.986 110.824C212.634 110.824 213.971 109.52 213.971 107.912C213.971 106.304 212.634 105 210.986 105C209.337 105 208 106.304 208 107.912C208 109.52 209.337 110.824 210.986 110.824Z" fill="#1E2532"/>
<path d="M158.902 99.9999H133.786C132.8 99.9999 132 103.582 132 108C132 112.418 132.8 116 133.786 116H158.902C159.889 116 160.689 112.418 160.689 108C160.689 103.582 159.889 99.9999 158.902 99.9999Z" fill="#3E4F64"/>
<path d="M145.985 110.824C147.633 110.824 148.97 109.52 148.97 107.912C148.97 106.304 147.633 105 145.985 105C144.336 105 143 106.304 143 107.912C143 109.52 144.336 110.824 145.985 110.824Z" fill="#1E2532"/>
<path d="M191.902 99.9999H166.786C165.799 99.9999 165 103.582 165 108C165 112.418 165.799 116 166.786 116H191.902C192.888 116 193.688 112.418 193.688 108C193.688 103.582 192.888 99.9999 191.902 99.9999Z" fill="#3E4F64"/>
<path d="M178.984 110.824C180.633 110.824 181.969 109.52 181.969 107.912C181.969 106.304 180.633 105 178.984 105C177.336 105 175.999 106.304 175.999 107.912C175.999 109.52 177.336 110.824 178.984 110.824Z" fill="#1E2532"/>
<path d="M194.721 68.4337C201.157 68.4337 206.375 63.2186 206.375 56.7853C206.375 50.3521 201.157 45.137 194.721 45.137C188.285 45.137 183.067 50.3521 183.067 56.7853C183.067 63.2186 188.285 68.4337 194.721 68.4337Z" fill="#3E4F64"/>
<path d="M232.597 90.2711H209.289V94.1538H232.597V90.2711Z" fill="#3E4F64"/>
<path d="M233.568 90.2711H254.934C255.449 90.2711 255.943 90.4756 256.307 90.8397C256.671 91.2038 256.876 91.6976 256.876 92.2125C256.876 92.7273 256.671 93.2211 256.307 93.5852C255.943 93.9493 255.449 94.1538 254.934 94.1538H233.568V90.2711Z" fill="#1E2532"/>
<path d="M186.952 90.2711H208.318V94.1538H186.952C186.436 94.1538 185.942 93.9493 185.578 93.5852C185.214 93.2211 185.009 92.7273 185.009 92.2125C185.009 91.6976 185.214 91.2038 185.578 90.8397C185.942 90.4756 186.436 90.2711 186.952 90.2711Z" fill="#3E4F64"/>
<path d="M136.392 96.5223C138.774 96.5223 140.704 94.5927 140.704 92.2124C140.704 89.8321 138.774 87.9025 136.392 87.9025C134.011 87.9025 132.08 89.8321 132.08 92.2124C132.08 94.5927 134.011 96.5223 136.392 96.5223Z" fill="white"/>
<path d="M135.679 94.3305C135.604 94.3302 135.53 94.3126 135.464 94.2788C135.397 94.2451 135.339 94.1963 135.295 94.1364L134.118 92.5687C134.078 92.5185 134.049 92.4608 134.031 92.399C134.014 92.3371 134.009 92.2724 134.017 92.2087C134.025 92.1449 134.046 92.0834 134.078 92.0279C134.111 91.9723 134.154 91.9238 134.205 91.8853C134.257 91.8467 134.315 91.8189 134.378 91.8035C134.44 91.788 134.505 91.7852 134.568 91.7953C134.632 91.8054 134.693 91.8282 134.747 91.8622C134.802 91.8963 134.849 91.9409 134.886 91.9936L135.655 93.0191L137.632 90.0555C137.703 89.9497 137.813 89.8764 137.938 89.8516C138.063 89.8269 138.193 89.8527 138.298 89.9235C138.404 89.9943 138.478 90.1043 138.502 90.2291C138.527 90.354 138.501 90.4836 138.431 90.5894L136.078 94.117C136.035 94.1808 135.978 94.2335 135.911 94.2706C135.844 94.3078 135.769 94.3283 135.692 94.3305H135.679Z" fill="#242F40"/>
</svg>
