<svg width="372" height="300" viewBox="0 0 372 300" fill="none" xmlns="http://www.w3.org/2000/svg">
<g clip-path="url(#clip0_2806_2862)">
<path d="M19.4113 111.367C14.2631 111.367 9.32573 113.414 5.68542 117.058C2.0451 120.703 0 125.645 0 130.799C0 135.953 2.0451 140.896 5.68542 144.54C9.32573 148.184 14.2631 150.232 19.4113 150.232H164.072C169.22 150.232 174.158 148.184 177.798 144.54C181.438 140.896 183.483 135.953 183.483 130.799C183.483 125.645 181.438 120.703 177.798 117.058C174.158 113.414 169.22 111.367 164.072 111.367H19.4113Z" fill="#3E4F64"/>
<path d="M19.4113 115.299C15.305 115.299 11.3669 116.932 8.4633 119.839C5.55971 122.746 3.92847 126.688 3.92847 130.799C3.92847 134.91 5.55971 138.852 8.4633 141.759C11.3669 144.666 15.305 146.299 19.4113 146.299H164.071C168.178 146.299 172.116 144.666 175.019 141.759C177.923 138.852 179.554 134.91 179.554 130.799C179.554 126.688 177.923 122.746 175.019 119.839C172.116 116.932 168.178 115.299 164.071 115.299H19.4113Z" fill="#242F40"/>
<path d="M51.3648 140.067H22.5828C22.4903 140.07 22.3982 140.053 22.312 140.02C22.2257 139.986 22.1472 139.935 22.0809 139.87C22.0145 139.806 21.9618 139.728 21.9259 139.643C21.8899 139.558 21.8713 139.466 21.8713 139.373C21.8713 139.28 21.8899 139.189 21.9259 139.103C21.9618 139.018 22.0145 138.941 22.0809 138.876C22.1472 138.811 22.2257 138.76 22.312 138.727C22.3982 138.693 22.4903 138.677 22.5828 138.679H51.3648C51.5455 138.684 51.7173 138.759 51.8435 138.889C51.9697 139.018 52.0403 139.192 52.0403 139.373C52.0403 139.554 51.9697 139.728 51.8435 139.858C51.7173 139.987 51.5455 140.062 51.3648 140.067Z" fill="white"/>
<path d="M87.8766 140.298H59.0946C58.9108 140.298 58.7344 140.225 58.6044 140.095C58.4744 139.965 58.4014 139.788 58.4014 139.604C58.4014 139.42 58.4744 139.244 58.6044 139.114C58.7344 138.983 58.9108 138.91 59.0946 138.91H87.8766C88.0605 138.91 88.2368 138.983 88.3668 139.114C88.4969 139.244 88.5699 139.42 88.5699 139.604C88.5699 139.788 88.4969 139.965 88.3668 140.095C88.2368 140.225 88.0605 140.298 87.8766 140.298Z" fill="white"/>
<path d="M124.388 140.53H95.6065C95.4257 140.525 95.2539 140.45 95.1277 140.321C95.0015 140.191 94.9309 140.017 94.9309 139.836C94.9309 139.655 95.0015 139.481 95.1277 139.351C95.2539 139.222 95.4257 139.147 95.6065 139.142H124.388C124.572 139.142 124.749 139.215 124.879 139.345C125.009 139.475 125.082 139.652 125.082 139.836C125.082 140.02 125.009 140.197 124.879 140.327C124.749 140.457 124.572 140.53 124.388 140.53Z" fill="white"/>
<path d="M160.9 140.761H132.118C131.934 140.761 131.758 140.688 131.628 140.558C131.498 140.428 131.425 140.251 131.425 140.067C131.425 139.883 131.498 139.707 131.628 139.577C131.758 139.446 131.934 139.373 132.118 139.373H160.9C161.081 139.378 161.252 139.453 161.379 139.583C161.505 139.712 161.575 139.886 161.575 140.067C161.575 140.248 161.505 140.422 161.379 140.552C161.252 140.681 161.081 140.757 160.9 140.761Z" fill="white"/>
<path d="M36.9106 133.68C39.8651 133.68 42.2602 131.282 42.2602 128.325C42.2602 125.367 39.8651 122.969 36.9106 122.969C33.9561 122.969 31.561 125.367 31.561 128.325C31.561 131.282 33.9561 133.68 36.9106 133.68Z" fill="white"/>
<path d="M73.6433 133.68C76.5978 133.68 78.9929 131.282 78.9929 128.325C78.9929 125.367 76.5978 122.969 73.6433 122.969C70.6888 122.969 68.2937 125.367 68.2937 128.325C68.2937 131.282 70.6888 133.68 73.6433 133.68Z" fill="white"/>
<path d="M110.375 133.68C113.33 133.68 115.725 131.282 115.725 128.325C115.725 125.367 113.33 122.969 110.375 122.969C107.421 122.969 105.026 125.367 105.026 128.325C105.026 131.282 107.421 133.68 110.375 133.68Z" fill="white"/>
<path d="M147.108 133.68C150.062 133.68 152.457 131.282 152.457 128.325C152.457 125.367 150.062 122.969 147.108 122.969C144.153 122.969 141.758 125.367 141.758 128.325C141.758 131.282 144.153 133.68 147.108 133.68Z" fill="white"/>
<path d="M166.749 280.192C166.204 280.192 165.663 280.096 165.151 279.909L130.452 267.284C129.489 266.934 128.668 266.278 128.114 265.416C127.56 264.555 127.302 263.535 127.382 262.514C127.461 261.492 127.873 260.525 128.554 259.759C129.234 258.994 130.147 258.473 131.152 258.276L226.985 239.494C227.761 239.343 228.562 239.39 229.315 239.63L256.091 248.22C257.057 248.53 257.897 249.146 258.484 249.975C259.071 250.804 259.372 251.802 259.344 252.818C259.315 253.833 258.958 254.812 258.325 255.607C257.693 256.402 256.82 256.969 255.837 257.224L167.926 280.042C167.541 280.142 167.146 280.192 166.749 280.192Z" fill="#1E2532"/>
<path d="M236.931 236.031L287.259 242.085L278.084 259.8L233.712 253.352C230.058 255.947 224.981 257.101 219.701 256.118C210.465 254.397 204.13 246.8 205.553 239.146C206.975 231.492 215.616 226.686 224.853 228.408C230.132 229.388 234.454 232.295 236.931 236.031Z" fill="#A0616A"/>
<path d="M306.813 93.868C304.88 86.7136 301.004 80.2356 295.615 75.1531C290.227 70.0707 283.536 66.5829 276.287 65.0768C269.038 63.5707 261.514 64.1054 254.55 66.6214C247.587 69.1375 241.456 73.5364 236.838 79.3299C232.221 85.1233 229.298 92.0846 228.393 99.4406C227.489 106.797 228.639 114.26 231.715 121.001C234.792 127.743 239.674 133.498 245.821 137.63C251.967 141.761 259.137 144.106 266.535 144.405L287.362 191.839L316.885 149.737C316.885 149.737 305.819 141.467 298.208 130.825C302.583 125.857 305.658 119.881 307.16 113.431C308.661 106.982 308.542 100.26 306.813 93.868Z" fill="#A0616A"/>
<path d="M347.328 176.672C344.685 170.151 340.171 164.56 334.356 160.605C328.541 156.65 321.686 154.509 314.656 154.452C296.52 154.277 273.436 159.024 272.484 184.116C270.908 225.662 272.484 208.94 272.484 208.94C272.484 208.94 259.964 240.148 272.484 255.201C285.004 270.254 295.921 299.925 295.921 299.925H372C372 299.925 358.866 265.176 361.123 241.469C362.654 225.376 355.352 196.54 347.329 176.674L347.328 176.672Z" fill="#3E4F64"/>
<path d="M369.093 170.536C367.009 174.298 360.99 174.084 358.02 170.976C355.05 167.867 354.554 163.127 355.02 158.851C355.486 154.575 356.744 150.37 356.658 146.07C356.492 137.863 367.184 151.275 361.692 145.18C356.2 139.086 349.921 133.487 346.167 126.19L345.714 125.724C347.317 120.423 343.429 115.008 339.052 111.622C334.676 108.236 329.428 105.65 326.441 100.988C323.898 97.0225 323.384 92.1464 322.272 87.5662C317.96 69.8274 303.057 55.1133 285.28 51.0436C267.503 46.9738 247.692 53.7425 236.108 67.8419L236.387 67.2574C232.622 68.0759 229.155 69.9173 226.367 72.5792C223.579 75.2412 221.578 78.6209 220.583 82.347C220.04 84.5057 219.859 86.8267 220.583 88.9324C221.308 91.038 223.069 92.8765 225.266 93.225C227.622 93.5973 229.979 92.2115 231.43 90.3162C232.882 88.421 233.606 86.0818 234.303 83.7993C235.675 88.6078 238.3 92.9646 241.908 96.4233C245.517 99.882 249.978 102.318 254.837 103.483C254.667 104.796 254.854 106.132 255.379 107.347C255.904 108.563 256.747 109.614 257.82 110.39C258.892 111.166 260.154 111.637 261.472 111.754C262.79 111.872 264.115 111.63 265.308 111.056L265.866 110.524L274.093 110.896C271.882 113.912 270.307 117.346 269.463 120.99C268.619 124.635 268.524 128.413 269.183 132.095C269.843 135.777 271.243 139.286 273.299 142.41C275.355 145.534 278.024 148.206 281.144 150.266C286.112 153.544 291.979 155.121 297.745 156.594C303.51 158.067 305.212 168.401 312.795 177.376C312.393 187.574 319.953 197.524 329.88 199.856L327.155 209.012C332.676 207.046 338.72 208.836 344.548 209.431C350.377 210.025 357.445 208.609 359.685 203.19C362.066 197.427 357.519 191.316 353.289 186.738C361.901 187.598 370.157 179.134 369.095 170.536H369.093Z" fill="#1E2532"/>
<path d="M219.357 264.362L268.366 277.322L256.833 293.596L213.777 281.07C209.8 283.133 204.611 283.575 199.519 281.87C190.608 278.888 185.384 270.486 187.849 263.103C190.315 255.721 199.537 252.156 208.449 255.138C213.542 256.842 217.42 260.32 219.358 264.362L219.357 264.362Z" fill="#A0616A"/>
<path d="M316.885 208.94C316.885 208.94 314.747 303.062 284.086 299.923C253.426 296.785 243.279 292.833 243.279 292.833C243.279 292.833 237.077 269.127 247.788 268.562C258.499 267.996 272.481 265.357 272.481 265.357V197.093" fill="#3E4F64"/>
<path d="M227.856 41.0497C225.858 41.8873 223.766 40.9697 222.892 38.8701C222.003 36.7389 222.833 34.5752 224.866 33.7255C226.899 32.8758 228.95 33.7944 229.853 35.9591C230.743 38.0935 229.92 40.1861 227.856 41.0497ZM224.023 29.5301L222.432 30.1951C222.035 30.3593 221.59 30.3682 221.187 30.22C220.783 30.0718 220.449 29.7773 220.252 29.3947L220.174 29.2407C218.462 26.15 218.268 22.3938 219.594 18.0821C220.825 14.2143 221.336 11.494 220.308 9.02966C219.12 6.18046 216.582 5.28796 213.346 6.58064C212.091 7.10553 211.691 7.09716 210.703 8.07806C210.488 8.29399 210.232 8.46438 209.95 8.57911C209.668 8.69383 209.366 8.75052 209.061 8.74581C208.767 8.74232 208.477 8.67954 208.207 8.56122C207.937 8.4429 207.695 8.27146 207.493 8.05713C207.104 7.64403 206.886 7.09856 206.883 6.53085C206.88 5.96315 207.092 5.41552 207.477 4.99853C209.137 3.25876 211.14 1.88237 213.358 0.956232C220.311 -1.9502 223.811 2.34105 225.413 6.18093C226.98 9.93705 226.099 13.4223 224.682 17.9356C223.496 21.6861 223.567 24.465 224.915 27.2281C225.012 27.437 225.066 27.6635 225.074 27.8939C225.082 28.1243 225.043 28.3538 224.96 28.5688C224.877 28.7838 224.751 28.9797 224.59 29.1448C224.43 29.3099 224.237 29.4408 224.025 29.5296L224.023 29.5301Z" fill="white"/>
</g>
<defs>
<clipPath id="clip0_2806_2862">
<rect width="372" height="300" fill="white"/>
</clipPath>
</defs>
</svg>
